<svg width="13" height="12" viewBox="0 0 13 12" fill="none" xmlns="http://www.w3.org/2000/svg">
<path fill-rule="evenodd" clip-rule="evenodd" d="M6.83152 4.29733L10.8748 3.125L9.86845 7.21278L8.61299 6.00754L6.58784 8.11707C6.51909 8.18868 6.42411 8.22917 6.32484 8.22917C6.22556 8.22917 6.13058 8.18868 6.06183 8.11707L4.57484 6.56812L2.38784 8.84624C2.2484 8.99149 2.01761 8.9962 1.87235 8.85676C1.7271 8.71731 1.72239 8.48652 1.86183 8.34126L4.31183 5.78918C4.38058 5.71757 4.47556 5.67708 4.57484 5.67708C4.67411 5.67708 4.76909 5.71757 4.83784 5.78918L6.32484 7.33813L8.08698 5.50257L6.83152 4.29733Z" fill="#1C1C1C"/>
</svg>
