<svg width="13" height="12" viewBox="0 0 13 12" fill="none" xmlns="http://www.w3.org/2000/svg">
<path fill-rule="evenodd" clip-rule="evenodd" d="M11.0442 2.86195C11.1895 3.0014 11.1942 3.23219 11.0548 3.37745L8.60475 5.92953C8.536 6.00114 8.44102 6.04163 8.34175 6.04163C8.24247 6.04163 8.14749 6.00114 8.07874 5.92953L6.59175 4.38058L4.82961 6.21614L6.08507 7.42138L2.04175 8.59371L3.04814 4.50593L4.3036 5.71117L6.32874 3.60164C6.39749 3.53003 6.49247 3.48954 6.59175 3.48954C6.69102 3.48954 6.786 3.53003 6.85475 3.60164L8.34175 5.15059L10.5287 2.87247C10.6682 2.72722 10.899 2.72251 11.0442 2.86195Z" fill="#1C1C1C"/>
</svg>
