<svg width="71" height="40" viewBox="0 0 71 40" fill="none" xmlns="http://www.w3.org/2000/svg">
<path d="M12.8375 33.9982H12.3143C11.2259 34.0174 10.1414 33.8641 9.10191 33.5443C8.24434 33.2752 7.46273 32.81 6.82022 32.1866C6.19482 31.5502 5.72877 30.7776 5.45947 29.9306C5.14164 28.9111 4.98935 27.8481 5.00831 26.7812V22.2228L9.46316 24.895V26.9481C9.42786 27.354 9.47534 27.7628 9.6028 28.1502C9.73026 28.5377 9.93508 28.8957 10.2051 29.2032C10.5169 29.4701 10.8795 29.6724 11.2715 29.7983C11.6635 29.9242 12.077 29.9711 12.4876 29.9362H12.669C13.0798 29.9711 13.4934 29.9242 13.8856 29.7983C14.2777 29.6724 14.6404 29.4701 14.9523 29.2032C15.222 28.8956 15.4264 28.5374 15.5534 28.15C15.6805 27.7626 15.7275 27.3538 15.6918 26.9481V23.5621C15.6918 21.6582 15.1686 20.6702 13.6936 19.784L8.83381 16.8656C7.52865 16.1444 6.47115 15.0532 5.79723 13.7323C5.21759 12.4103 4.94787 10.9755 5.00831 9.53553V7.3317C4.98868 6.24257 5.14425 5.15728 5.46919 4.11657C5.74345 3.25615 6.2185 2.47177 6.85586 1.82693C7.50952 1.19682 8.30357 0.727613 9.174 0.457153C10.2277 0.135986 11.3262 -0.0177634 12.4285 0.00163021H12.9517C14.0401 -0.0175068 15.1245 0.135733 16.1641 0.455549C17.0216 0.724714 17.8032 1.18982 18.4458 1.8133C19.0712 2.44966 19.5372 3.22232 19.8065 4.06926C20.1244 5.08904 20.2767 6.15234 20.2577 7.21942V10.0745L15.8028 7.40227V7.0494C15.8381 6.64346 15.7906 6.23464 15.6631 5.84723C15.5357 5.45983 15.3309 5.10174 15.0609 4.79424C14.7498 4.52809 14.3881 4.32615 13.9972 4.20028C13.6062 4.0744 13.1937 4.02713 12.784 4.06124H12.6002C12.1894 4.0263 11.7758 4.07316 11.3836 4.19906C10.9915 4.32495 10.6288 4.52732 10.3169 4.79424C10.0469 5.10174 9.8421 5.45983 9.71464 5.84723C9.58719 6.23464 9.53968 6.64346 9.57494 7.0494V9.4802C9.49395 10.2414 9.64673 11.0091 10.0133 11.683C10.3799 12.3569 10.9433 12.9056 11.6298 13.2575L16.433 16.1214C17.7508 16.82 18.8239 17.8976 19.5109 19.2122C20.0791 20.5515 20.3344 22.0007 20.2577 23.4514V26.6714C20.2773 27.7602 20.1217 28.8453 19.7968 29.8857C19.5321 30.751 19.0553 31.5379 18.4089 32.1764C17.7624 32.8149 16.9665 33.2851 16.092 33.5451C15.0381 33.8655 13.9397 34.0184 12.8375 33.9982ZM68.2218 27.8158H54.6386V23.3047H71L68.225 27.815L68.2218 27.8158ZM50.0719 27.8158H43.4982V0.340064H48.064V23.3047H50.0719V27.815V27.8158ZM29.3901 27.8158H24.8235V0.340064H33.9559C34.9961 0.367223 36 0.724236 36.82 1.35858C37.9907 2.29594 38.7963 3.6067 39.0992 5.06692L39.1082 5.10461C39.1203 5.15433 39.1333 5.20566 39.1446 5.25859C39.1835 5.43422 39.2183 5.62349 39.2491 5.81997C39.2645 5.91942 39.2758 6.00122 39.2855 6.07741C39.3131 6.28352 39.3358 6.49684 39.352 6.71097C39.352 6.76711 39.3584 6.82485 39.3617 6.88259V6.89222C39.3787 7.17932 39.3868 7.42633 39.3868 7.66933V11.5774C39.3868 11.818 39.3787 12.0666 39.3617 12.3545V12.3761C39.3617 12.4291 39.356 12.4828 39.352 12.5365C39.3358 12.7499 39.3139 12.9632 39.2855 13.1709C39.2758 13.2463 39.2645 13.3257 39.2491 13.4283C39.2183 13.6256 39.1827 13.8141 39.1446 13.9897C39.1325 14.0459 39.1187 14.1012 39.1057 14.1549L39.0992 14.1814C38.7954 15.6401 37.9898 16.9493 36.82 17.8857C36 18.5201 34.9961 18.8771 33.9559 18.9042H29.3885V27.815L29.3901 27.8158ZM29.3901 4.39807V14.8478H31.7973C32.2081 14.8828 32.6217 14.836 33.0139 14.7101C33.4061 14.5842 33.7688 14.3818 34.0807 14.1148C34.3506 13.8073 34.5554 13.4492 34.6828 13.0618C34.8103 12.6744 34.8578 12.2656 34.8226 11.8597V7.38784C34.8575 6.9821 34.8097 6.57357 34.6821 6.18645C34.5545 5.79934 34.3497 5.44155 34.0798 5.13428C33.768 4.86732 33.4053 4.66493 33.0131 4.53903C32.6209 4.41314 32.2073 4.3663 31.7965 4.40128L29.3901 4.39807Z" fill="#00C8E1"/>
<path d="M31.0124 40L27.9302 36.9266L31.0124 33.8531L34.0947 36.9266L31.0124 40ZM12.2415 38.1729H11.7192C10.0792 38.1943 8.44643 37.9518 6.88294 37.4547C5.51272 37.0162 4.25276 36.2865 3.18888 35.3154C2.14109 34.3296 1.33401 33.1146 0.830414 31.7648C0.255411 30.1822 -0.0254371 28.5073 0.00180822 26.823V19.5438L4.43501 22.2347V26.823C4.41621 27.8971 4.56803 28.9674 4.88478 29.9935C5.14431 30.8528 5.61113 31.6345 6.24384 32.2694C6.87656 32.9043 7.65561 33.3727 8.51194 33.6331C9.54816 33.9551 10.6289 34.1094 11.7135 34.0901H12.235C13.3332 34.1096 14.4276 33.9548 15.4777 33.6315C16.3481 33.3706 17.1407 32.8977 17.7848 32.2549C18.429 31.6121 18.9046 30.8194 19.1694 29.9474C19.4931 28.9004 19.6482 27.8083 19.6288 26.7122V10L24.1829 12.7596V27.8607H28.737V18.8928H33.2911V27.8607H38.2498V20.7134H42.8007V27.8615H49.353V20.7134H53.9031V27.8615H62.5277C62.122 29.1482 61.2591 30.2404 60.1031 30.9301C58.7229 31.6628 57.1736 32.0145 55.6135 31.9492H23.2237C22.4168 33.831 21.0334 35.4059 19.2741 36.4453C17.1293 37.6502 14.6984 38.2474 12.2415 38.1729ZM63 23.3201H58.4499V18.8928L63 16.1331V23.3193V23.3201Z" fill="white"/>
</svg>
