<svg width="24" height="24" viewBox="0 0 24 24" fill="none" xmlns="http://www.w3.org/2000/svg">
<path fill-rule="evenodd" clip-rule="evenodd" d="M14.5561 8.10173C15.0522 8.13273 15.4293 8.56003 15.3983 9.05612L14.8983 17.0561C14.8672 17.5522 14.44 17.9292 13.9439 17.8982C13.4478 17.8672 13.0708 17.4399 13.1018 16.9438L13.6018 8.94384C13.6328 8.44775 14.0601 8.07072 14.5561 8.10173Z" fill="#FF3347"/>
<path fill-rule="evenodd" clip-rule="evenodd" d="M9.44387 8.10173C8.94778 8.13273 8.57075 8.56003 8.60176 9.05612L9.10176 17.0561C9.13276 17.5522 9.56006 17.9292 10.0561 17.8982C10.5522 17.8672 10.9293 17.4399 10.8983 16.9438L10.3983 8.94384C10.3672 8.44775 9.93995 8.07072 9.44387 8.10173Z" fill="#FF3347"/>
<path fill-rule="evenodd" clip-rule="evenodd" d="M3.00001 4.09998C2.50295 4.09998 2.10001 4.50292 2.10001 4.99998C2.10001 5.49703 2.50295 5.89998 3.00001 5.89998H4.18043L5.33506 18.216C5.3804 18.6998 5.4192 19.1138 5.47809 19.4533C5.54021 19.8116 5.63503 20.1567 5.82897 20.4827C6.12318 20.9772 6.55784 21.373 7.07767 21.6198C7.42036 21.7825 7.77281 21.8447 8.1353 21.8731C8.47888 21.9 8.8947 21.9 9.38067 21.9H14.6193C15.1053 21.9 15.5211 21.9 15.8647 21.8731C16.2272 21.8447 16.5796 21.7825 16.9223 21.6198C17.4422 21.373 17.8768 20.9772 18.171 20.4827C18.365 20.1567 18.4598 19.8116 18.5219 19.4533C18.5808 19.1138 18.6196 18.6998 18.665 18.216L19.8196 5.89998H21C21.4971 5.89998 21.9 5.49703 21.9 4.99998C21.9 4.50292 21.4971 4.09998 21 4.09998H15.7956C15.3893 2.37996 13.8442 1.09998 12 1.09998C10.1559 1.09998 8.61066 2.37996 8.20437 4.09998H3.00001ZM7.12408 18.0147C7.17342 18.5409 7.20623 18.884 7.25161 19.1458C7.2951 19.3965 7.33949 19.5011 7.37592 19.5624C7.48751 19.75 7.65239 19.9001 7.84956 19.9937C7.91394 20.0243 8.02225 20.0587 8.27597 20.0786C8.54078 20.0993 8.88547 20.1 9.41404 20.1H14.586C15.1145 20.1 15.4592 20.0993 15.724 20.0786C15.9778 20.0587 16.0861 20.0243 16.1504 19.9937C16.3476 19.9001 16.5125 19.75 16.6241 19.5624C16.6605 19.5011 16.7049 19.3965 16.7484 19.1458C16.7938 18.884 16.8266 18.5409 16.8759 18.0147L18.0117 5.89998H5.98833L7.12408 18.0147ZM12 2.89998C11.1623 2.89998 10.4391 3.39049 10.1021 4.09998H13.8979C13.5609 3.39049 12.8377 2.89998 12 2.89998Z" fill="#FF3347"/>
</svg>
