<svg width="18" height="18" viewBox="0 0 18 18" fill="none" xmlns="http://www.w3.org/2000/svg">
<path d="M0.634656 15.7537C0.227054 14.9915 0.100391 14.2419 0.100391 12.6722L0.100391 10.0189C0.100261 10.0126 0.100196 10.0063 0.100196 9.99997C0.100196 9.50292 0.503139 9.09997 1.0002 9.09997C1.49725 9.09997 1.9002 9.50292 1.9002 9.99997C1.9002 9.99997 1.9002 9.99998 1.9002 9.99997L1.90039 12.6722C1.90039 14.1589 2.02833 14.5428 2.22192 14.9048C2.40153 15.2407 2.65973 15.4989 2.99558 15.6785C3.35756 15.8721 3.74149 16 5.22816 16L12.7726 16C14.2593 16 14.6432 15.8721 15.0052 15.6785C15.3411 15.4989 15.5992 15.2407 15.7789 14.9048C15.9725 14.5428 16.1004 14.1589 16.1004 12.6722L16.1004 10.0189C16.1003 10.0126 16.1002 10.0063 16.1002 9.99998C16.1002 9.50292 16.5031 9.09998 17.0002 9.09998C17.4973 9.09998 17.9002 9.50292 17.9002 9.99998C17.9002 9.99997 17.9002 9.99998 17.9002 9.99998L17.9004 12.6722C17.9004 14.2419 17.7737 14.9915 17.3661 15.7537C17.0188 16.4032 16.5036 16.9184 15.8541 17.2657C15.0919 17.6733 14.3423 17.8 12.7726 17.8L5.22816 17.8C3.65851 17.8 2.90885 17.6733 2.1467 17.2657C1.49717 16.9184 0.98203 16.4032 0.634656 15.7537Z" fill="#4BB34B"/>
<path d="M5.63668 6.3636L8.10018 8.82711L8.10018 0.9C8.10018 0.402943 8.50313 -4.10767e-07 9.00019 -3.8904e-07C9.49724 -3.67313e-07 9.90018 0.402943 9.90018 0.9L9.90018 8.82731L12.3639 6.3636C12.7154 6.01213 13.2852 6.01213 13.6367 6.3636C13.9881 6.71508 13.9881 7.28492 13.6367 7.6364L9.63668 11.6364C9.28521 11.9879 8.71536 11.9879 8.36389 11.6364L4.36389 7.6364C4.01241 7.28492 4.01241 6.71508 4.36389 6.3636C4.71536 6.01213 5.28521 6.01213 5.63668 6.3636Z" fill="#4BB34B"/>
</svg>
