<svg width="185" height="179" viewBox="0 0 185 179" fill="none" xmlns="http://www.w3.org/2000/svg">
<path d="M181 89.5C181 136.597 141.503 175 92.5 175C43.4975 175 4 136.597 4 89.5C4 42.4029 43.4975 4 92.5 4C141.503 4 181 42.4029 181 89.5Z" stroke="#153C3F" stroke-width="8"/>
<path d="M172 89.5C172 132.211 136.499 167 92.5 167C48.5014 167 13 132.211 13 89.5C13 46.7888 48.5014 12 92.5 12C136.499 12 172 46.7888 172 89.5Z" stroke="#00C8E1" stroke-width="8"/>
<path d="M133.26 47L51.9999 132.354" stroke="#153C3F" stroke-width="7" stroke-miterlimit="10"/>
<path d="M51.9999 47L133.26 132.354" stroke="#153C3F" stroke-width="7" stroke-miterlimit="10"/>
</svg>
