<svg width="23" height="22" viewBox="0 0 23 22" fill="none" xmlns="http://www.w3.org/2000/svg">
<g clip-path="url(#clip0_1_33)">
<path d="M20.8648 10.3936C20.8648 16.1338 16.2115 20.7872 10.4712 20.7872C4.73101 20.7872 0.0776367 16.1338 0.0776367 10.3936C0.0776367 4.65337 4.73101 0 10.4712 0C16.2115 0 20.8648 4.65337 20.8648 10.3936Z" fill="url(#paint0_linear_1_33)"/>
<path d="M20.8648 10.3936C20.8648 16.1338 16.2115 20.7872 10.4712 20.7872C4.73101 20.7872 0.0776367 16.1338 0.0776367 10.3936C0.0776367 4.65337 4.73101 0 10.4712 0C16.2115 0 20.8648 4.65337 20.8648 10.3936Z" fill="#153C3F"/>
<path d="M8.80826 13.5117V20.5793C8.80826 20.6941 8.90133 20.7872 9.01613 20.7872H11.9263C12.0411 20.7872 12.1342 20.6941 12.1342 20.5793V13.5117C12.1342 13.3969 12.2273 13.3038 12.3421 13.3038H14.4208C14.5356 13.3038 14.6287 13.2107 14.6287 13.0959V10.6015C14.6287 10.4867 14.5356 10.3936 14.4208 10.3936H12.3421C12.2273 10.3936 12.1342 10.3007 12.1342 10.1859V8.31488C12.1342 7.48339 13.1736 7.06765 13.5893 7.06765H14.8366C14.9514 7.06765 15.0444 6.97458 15.0444 6.85978V4.36531C15.0444 4.25051 14.9514 4.15744 14.8366 4.15744H12.1342C10.1386 4.15744 8.80826 6.23616 8.80826 7.48339V10.1857C8.80826 10.3005 8.71519 10.3936 8.60039 10.3936H6.52167C6.40687 10.3936 6.3138 10.4867 6.3138 10.6015V13.0959C6.3138 13.2107 6.40687 13.3038 6.52167 13.3038H8.60039C8.71519 13.3038 8.80826 13.3969 8.80826 13.5117Z" fill="white"/>
</g>
<defs>
<linearGradient id="paint0_linear_1_33" x1="10.4712" y1="0" x2="10.4712" y2="20.7872" gradientUnits="userSpaceOnUse">
<stop/>
<stop offset="1"/>
</linearGradient>
<clipPath id="clip0_1_33">
<rect width="21.9367" height="21.9367" fill="white" transform="translate(0.0776367)"/>
</clipPath>
</defs>
</svg>
