<svg width="23" height="22" viewBox="0 0 23 22" fill="none" xmlns="http://www.w3.org/2000/svg">
<g clip-path="url(#clip0_1_38)">
<path fill-rule="evenodd" clip-rule="evenodd" d="M7.39758 0.0658102C8.5672 0.0119655 8.94013 0 11.9195 0C14.8989 0 15.2719 0.0129626 16.4405 0.0658102C17.6091 0.118658 18.4068 0.30512 19.1048 0.57534C19.8357 0.851544 20.4988 1.2833 21.0472 1.84169C21.6056 2.38911 22.0364 3.0512 22.3116 3.78309C22.5828 4.48107 22.7682 5.27877 22.8221 6.44541C22.8759 7.61703 22.8879 7.98995 22.8879 10.9684C22.8879 13.9478 22.8749 14.3207 22.8221 15.4903C22.7692 16.657 22.5828 17.4547 22.3116 18.1526C22.0363 18.8846 21.6049 19.5478 21.0472 20.096C20.4988 20.6544 19.8357 21.0852 19.1048 21.3604C18.4068 21.6316 17.6091 21.8171 16.4425 21.8709C15.2719 21.9248 14.8989 21.9367 11.9195 21.9367C8.94013 21.9367 8.5672 21.9238 7.39758 21.8709C6.23094 21.8181 5.43324 21.6316 4.73526 21.3604C4.00329 21.0851 3.3401 20.6537 2.79186 20.096C2.23385 19.5483 1.80203 18.8854 1.52651 18.1536C1.25629 17.4556 1.07083 16.6579 1.01698 15.4913C0.963137 14.3197 0.951172 13.9468 0.951172 10.9684C0.951172 7.98896 0.964134 7.61603 1.01698 6.4474C1.06983 5.27877 1.25629 4.48107 1.52651 3.78309C1.80244 3.05128 2.23459 2.38842 2.79286 1.84069C3.34032 1.2828 4.00284 0.850989 4.73426 0.57534C5.43225 0.30512 6.22995 0.119655 7.39658 0.0658102H7.39758ZM16.3517 2.04012C15.1951 1.98727 14.8481 1.9763 11.9195 1.9763C8.99098 1.9763 8.64398 1.98727 7.48732 2.04012C6.4174 2.08897 5.83708 2.26746 5.45019 2.41803C4.93867 2.61745 4.57273 2.85377 4.18883 3.23766C3.82493 3.59169 3.54487 4.02268 3.3692 4.49902C3.21863 4.88591 3.04015 5.46623 2.99129 6.53615C2.93844 7.69281 2.92747 8.03981 2.92747 10.9684C2.92747 13.8969 2.93844 14.2439 2.99129 15.4006C3.04015 16.4705 3.21863 17.0508 3.3692 17.4377C3.54469 17.9133 3.82488 18.3451 4.18883 18.6991C4.54281 19.063 4.97457 19.3432 5.45019 19.5187C5.83708 19.6693 6.4174 19.8477 7.48732 19.8966C8.64398 19.9495 8.98998 19.9604 11.9195 19.9604C14.8491 19.9604 15.1951 19.9495 16.3517 19.8966C17.4217 19.8477 18.002 19.6693 18.3889 19.5187C18.9004 19.3193 19.2663 19.083 19.6502 18.6991C20.0142 18.3451 20.2944 17.9133 20.4699 17.4377C20.6204 17.0508 20.7989 16.4705 20.8478 15.4006C20.9006 14.2439 20.9116 13.8969 20.9116 10.9684C20.9116 8.03981 20.9006 7.69281 20.8478 6.53615C20.7989 5.46623 20.6204 4.88591 20.4699 4.49902C20.2704 3.9875 20.0341 3.62155 19.6502 3.23766C19.2962 2.87378 18.8652 2.59373 18.3889 2.41803C18.002 2.26746 17.4217 2.08897 16.3517 2.04012ZM10.5186 14.3496C11.301 14.6753 12.1722 14.7193 12.9834 14.474C13.7946 14.2287 14.4955 13.7094 14.9664 13.0047C15.4372 12.3001 15.6488 11.4538 15.5651 10.6105C15.4813 9.76717 15.1073 8.97907 14.5071 8.38083C14.1244 7.9984 13.6617 7.70559 13.1523 7.52345C12.6429 7.34131 12.0994 7.27438 11.5611 7.32748C11.0227 7.38058 10.5028 7.55239 10.0388 7.83054C9.57475 8.10869 9.17819 8.48627 8.87761 8.93608C8.57704 9.38589 8.37993 9.89674 8.30049 10.4319C8.22105 10.967 8.26124 11.5131 8.41817 12.0308C8.57511 12.5485 8.84488 13.025 9.20808 13.426C9.57127 13.827 10.0188 14.1424 10.5186 14.3496ZM7.93303 6.98186C8.45655 6.45835 9.07805 6.04307 9.76206 5.75975C10.4461 5.47642 11.1792 5.3306 11.9195 5.3306C12.6599 5.3306 13.393 5.47642 14.077 5.75975C14.761 6.04307 15.3825 6.45835 15.906 6.98186C16.4295 7.50538 16.8448 8.12688 17.1281 8.81088C17.4115 9.49489 17.5573 10.228 17.5573 10.9684C17.5573 11.7087 17.4115 12.4418 17.1281 13.1258C16.8448 13.8098 16.4295 14.4313 15.906 14.9549C14.8487 16.0121 13.4148 16.6061 11.9195 16.6061C10.4243 16.6061 8.99032 16.0121 7.93303 14.9549C6.87575 13.8976 6.28177 12.4636 6.28177 10.9684C6.28177 9.47313 6.87575 8.03915 7.93303 6.98186ZM18.8077 6.1702C18.9374 6.04782 19.0413 5.90066 19.1131 5.73742C19.1849 5.57419 19.2233 5.3982 19.2259 5.21987C19.2285 5.04155 19.1953 4.86452 19.1282 4.69925C19.0612 4.53399 18.9617 4.38387 18.8355 4.25776C18.7094 4.13165 18.5593 4.03213 18.394 3.96508C18.2288 3.89803 18.0518 3.86483 17.8734 3.86743C17.6951 3.87003 17.5191 3.90838 17.3559 3.98022C17.1926 4.05205 17.0455 4.15591 16.9231 4.28564C16.6851 4.53794 16.5548 4.87306 16.5599 5.21987C16.5649 5.56668 16.7049 5.89787 16.9502 6.14312C17.1954 6.38838 17.5266 6.5284 17.8734 6.53345C18.2202 6.53851 18.5554 6.40821 18.8077 6.1702Z" fill="#153C3F"/>
</g>
<defs>
<clipPath id="clip0_1_38">
<rect width="21.9367" height="21.9367" fill="white" transform="translate(0.951172)"/>
</clipPath>
</defs>
</svg>
