<svg width="23" height="23" viewBox="0 0 23 23" fill="none" xmlns="http://www.w3.org/2000/svg">
<g clip-path="url(#clip0_1_40)">
<path d="M1.71924 3.32625C1.71924 1.71899 3.02218 0.416046 4.62945 0.416046H19.5962C21.2035 0.416046 22.5064 1.71899 22.5064 3.32625V18.293C22.5064 19.9003 21.2035 21.2032 19.5962 21.2032H4.62945C3.02218 21.2032 1.71924 19.9003 1.71924 18.293V3.32625Z" fill="#153C3F"/>
<path d="M9.20263 6.02859C9.20263 7.06183 8.36502 7.89944 7.33178 7.89944C6.29854 7.89944 5.46093 7.06183 5.46093 6.02859C5.46093 4.99535 6.29854 4.15774 7.33178 4.15774C8.36502 4.15774 9.20263 4.99535 9.20263 6.02859Z" fill="white"/>
<path d="M5.87668 9.14667C5.87668 8.91706 6.06281 8.73093 6.29242 8.73093H8.37114C8.60075 8.73093 8.78689 8.91706 8.78689 9.14667V17.0458C8.78689 17.2754 8.60075 17.4616 8.37114 17.4616H6.29242C6.06281 17.4616 5.87668 17.2754 5.87668 17.0458V9.14667Z" fill="white"/>
<path d="M10.4499 8.73093L12.3207 8.73094C12.5503 8.73094 12.7365 8.91707 12.7365 9.14668V9.56243C13.5679 8.52306 15.0923 8.45376 15.8545 8.52305C18.2307 8.73905 18.6262 11.1561 18.5569 12.4726L18.5569 17.0458C18.5569 17.2754 18.3707 17.4616 18.1411 17.4616L16.2703 17.4616C16.0407 17.4616 15.8545 17.2754 15.8545 17.0458V12.4726C15.7852 11.9183 15.3972 10.8096 14.3994 10.8096C13.4016 10.8096 12.8057 12.0569 12.7365 12.4726V17.0458C12.7365 17.2754 12.5503 17.4616 12.3207 17.4616L10.4499 17.4616C10.2203 17.4616 10.0341 17.2754 10.0341 17.0458V9.14667C10.0341 8.91706 10.2203 8.73093 10.4499 8.73093Z" fill="white"/>
</g>
<defs>
<clipPath id="clip0_1_40">
<rect width="22.0344" height="22.0344" fill="white" transform="translate(0.887695)"/>
</clipPath>
</defs>
</svg>
