<svg width="208" height="124" viewBox="0 0 208 124" fill="none" xmlns="http://www.w3.org/2000/svg">
<path d="M35.3692 118.035C35.2037 118.042 35.0398 117.999 34.8998 117.91C34.7598 117.822 34.6504 117.692 34.5865 117.539C34.5226 117.386 34.5072 117.217 34.5424 117.055C34.5776 116.894 34.6618 116.746 34.7835 116.634L34.8389 116.414C34.8316 116.396 34.8242 116.379 34.8169 116.361C34.6501 115.967 34.3707 115.631 34.0136 115.396C33.6566 115.16 33.238 115.035 32.8102 115.037C32.3825 115.038 31.9647 115.166 31.6095 115.405C31.2542 115.643 30.9773 115.981 30.8135 116.376C30.1587 117.953 29.325 119.532 29.1198 121.2C29.0294 121.937 29.0675 122.684 29.2325 123.408C27.6946 120.053 26.896 116.407 26.8909 112.717C26.8906 111.791 26.942 110.865 27.045 109.945C27.1301 109.191 27.2482 108.441 27.3992 107.698C28.2235 103.662 29.9933 99.88 32.5632 96.6614C33.807 95.9827 34.8129 94.9391 35.4453 93.6711C35.6744 93.2153 35.8364 92.7288 35.9261 92.2266C35.7858 92.245 35.397 90.1081 35.5028 89.977C35.3073 89.6803 34.9573 89.5328 34.7438 89.2432C33.6817 87.8033 32.2184 88.0547 31.4545 90.0115C29.8226 90.8351 29.8068 92.201 30.8081 93.5147C31.4452 94.3505 31.5327 95.4814 32.0916 96.3761C32.0341 96.4498 31.9743 96.5211 31.9168 96.5947C30.8656 97.9464 29.9494 99.3979 29.1814 100.928C29.3681 99.2138 29.1452 97.4794 28.5309 95.8678C27.9083 94.3659 26.7414 93.101 25.7138 91.8026C24.4794 90.243 21.9483 90.9236 21.7308 92.9006C21.7287 92.9198 21.7266 92.9389 21.7247 92.9581C21.8773 93.0442 22.0267 93.1356 22.1729 93.2322C22.3565 93.3549 22.4989 93.5303 22.5812 93.7352C22.6635 93.9402 22.682 94.1652 22.6342 94.3809C22.5864 94.5965 22.4746 94.7927 22.3134 94.9437C22.1522 95.0948 21.9492 95.1936 21.7309 95.2272L21.7086 95.2306C21.7629 95.7808 21.859 96.326 21.9961 96.8615C20.6778 101.96 23.5239 103.817 27.5878 103.9C27.6776 103.946 27.765 103.992 27.8547 104.036C27.083 106.223 26.599 108.501 26.4148 110.812C26.3105 112.176 26.3166 113.546 26.4332 114.909L26.4263 114.861C26.1318 113.345 25.3234 111.978 24.1376 110.989C22.3763 109.542 19.8879 109.01 17.9878 107.847C17.7859 107.717 17.5511 107.648 17.3111 107.647C17.0711 107.647 16.836 107.715 16.6334 107.843C16.4308 107.972 16.2693 108.156 16.1678 108.373C16.0664 108.591 16.0292 108.833 16.0607 109.071C16.0633 109.088 16.0658 109.105 16.0685 109.122C16.3517 109.237 16.6275 109.37 16.8942 109.519C17.0469 109.606 17.1963 109.697 17.3425 109.794C17.5261 109.916 17.6684 110.092 17.7507 110.297C17.8331 110.502 17.8515 110.727 17.8038 110.942C17.756 111.158 17.6442 111.354 17.483 111.505C17.3218 111.656 17.1188 111.755 16.9005 111.789L16.8781 111.792C16.862 111.794 16.8482 111.797 16.8321 111.799C17.3161 112.955 17.9954 114.018 18.8402 114.943C19.6645 119.394 23.2049 119.816 26.9921 118.52H26.9944C27.4099 120.326 28.012 122.083 28.7909 123.765H35.2084C35.2314 123.693 35.2521 123.62 35.2728 123.548C34.6788 123.586 34.0825 123.55 33.4971 123.443C33.9732 122.858 34.4494 122.269 34.9255 121.685C34.9361 121.674 34.9461 121.663 34.9554 121.651C35.1969 121.352 35.4407 121.055 35.6823 120.756L35.6824 120.756C35.6953 119.839 35.5899 118.924 35.3692 118.035Z" fill="#F2F2F2"/>
<path d="M169.409 118.035C169.575 118.042 169.739 117.999 169.879 117.91C170.019 117.822 170.128 117.692 170.192 117.539C170.256 117.386 170.271 117.217 170.236 117.055C170.201 116.894 170.117 116.746 169.995 116.634L169.94 116.414C169.947 116.396 169.954 116.379 169.962 116.361C170.129 115.967 170.408 115.631 170.765 115.396C171.122 115.16 171.541 115.035 171.968 115.037C172.396 115.038 172.814 115.166 173.169 115.405C173.524 115.643 173.801 115.981 173.965 116.376C174.62 117.953 175.454 119.532 175.659 121.2C175.749 121.937 175.711 122.684 175.546 123.408C177.084 120.053 177.883 116.407 177.888 112.717C177.888 111.791 177.837 110.865 177.734 109.945C177.649 109.191 177.53 108.441 177.379 107.698C176.555 103.662 174.785 99.88 172.215 96.6614C170.972 95.9827 169.966 94.9391 169.333 93.6711C169.104 93.2153 168.942 92.7288 168.853 92.2266C168.993 92.245 169.382 90.1081 169.276 89.977C169.471 89.6803 169.821 89.5328 170.035 89.2432C171.097 87.8033 172.56 88.0547 173.324 90.0115C174.956 90.8351 174.972 92.201 173.97 93.5147C173.333 94.3505 173.246 95.4814 172.687 96.3761C172.744 96.4498 172.804 96.5211 172.862 96.5947C173.913 97.9464 174.829 99.3979 175.597 100.928C175.41 99.2138 175.633 97.4794 176.248 95.8678C176.87 94.3659 178.037 93.101 179.065 91.8026C180.299 90.243 182.83 90.9236 183.048 92.9006C183.05 92.9198 183.052 92.9389 183.054 92.9581C182.901 93.0442 182.752 93.1356 182.606 93.2322C182.422 93.3549 182.28 93.5303 182.197 93.7352C182.115 93.9402 182.097 94.1652 182.144 94.3809C182.192 94.5965 182.304 94.7927 182.465 94.9437C182.626 95.0948 182.829 95.1936 183.048 95.2272L183.07 95.2306C183.016 95.7808 182.92 96.326 182.783 96.8615C184.101 101.96 181.255 103.817 177.191 103.9C177.101 103.946 177.014 103.992 176.924 104.036C177.696 106.223 178.18 108.501 178.364 110.812C178.468 112.176 178.462 113.546 178.345 114.909L178.352 114.861C178.647 113.345 179.455 111.978 180.641 110.989C182.402 109.542 184.891 109.01 186.791 107.847C186.993 107.717 187.228 107.648 187.468 107.647C187.707 107.647 187.943 107.715 188.145 107.843C188.348 107.972 188.509 108.156 188.611 108.373C188.712 108.591 188.749 108.833 188.718 109.071C188.715 109.088 188.713 109.105 188.71 109.122C188.427 109.237 188.151 109.37 187.884 109.519C187.732 109.606 187.582 109.697 187.436 109.794C187.252 109.916 187.11 110.092 187.028 110.297C186.946 110.502 186.927 110.727 186.975 110.942C187.023 111.158 187.134 111.354 187.296 111.505C187.457 111.656 187.66 111.755 187.878 111.789L187.9 111.792C187.917 111.794 187.93 111.797 187.946 111.799C187.462 112.955 186.783 114.018 185.938 114.943C185.114 119.394 181.574 119.816 177.787 118.52H177.784C177.369 120.326 176.767 122.083 175.988 123.765H169.57C169.547 123.693 169.526 123.62 169.506 123.548C170.1 123.586 170.696 123.55 171.282 123.443C170.805 122.858 170.329 122.269 169.853 121.685C169.843 121.674 169.833 121.663 169.823 121.651C169.582 121.352 169.338 121.055 169.096 120.756L169.096 120.756C169.083 119.839 169.189 118.924 169.409 118.035Z" fill="#F2F2F2"/>
<path d="M42.75 123.621H53.1059C54.8771 117.657 53.1153 103.563 55.4499 97.8021C59.9289 86.7567 65.6509 75.1023 76.3307 69.7091C80.8907 67.4062 85.8626 66.5068 90.9402 66.5558C97.9545 66.6223 105.166 68.5052 111.768 71.0005C114.469 72.019 117.145 73.1389 119.811 74.2833C129.853 78.5986 139.786 83.2989 150.586 84.5693C164.252 86.1757 180.319 80.0615 184.052 66.8918C186.9 56.8088 181.77 46.3409 176.389 37.3359C171.009 28.3309 164.995 18.6959 165.977 8.26997C165.981 8.23498 165.984 8.19647 165.991 8.16148C166.361 4.41668 168.597 1.7254 171.72 0H158.121C157.942 9.72596 163.569 18.3109 168.632 26.7874C174.013 35.789 179.143 46.2604 176.294 56.3433C172.562 69.5096 141.655 54.076 127.989 52.4661C124.13 52.0146 130.261 53.621 126.581 52.4661C120.81 50.6567 120.17 67.2523 114.553 64.8164C111.057 63.2975 107.557 61.789 104.011 60.4486C102.543 59.8921 101.043 59.3707 99.5249 58.8877C99.5214 58.8877 99.5214 58.8877 99.5179 58.8842C89.3275 55.6574 78.1829 54.4009 68.7672 59.0662C68.7038 59.0977 68.6369 59.1292 68.5735 59.1607C57.8936 64.5504 52.1717 76.2048 47.6927 87.2501C43.9919 96.3811 44.574 113.989 42.75 123.621Z" fill="#F2F2F2"/>
<path d="M100.367 123.315C126.636 123.315 147.931 102.02 147.931 75.7518C147.931 49.4831 126.636 28.1882 100.367 28.1882C74.0987 28.1882 52.8037 49.4831 52.8037 75.7518C52.8037 102.02 74.0987 123.315 100.367 123.315Z" fill="white"/>
<path d="M100.231 123.621C53.1715 124.702 52.1396 102.344 52.1396 75.7516C52.1396 49.1594 73.7743 27.5247 100.367 27.5247C126.959 27.5247 148.594 49.1594 148.594 75.7516C148.594 102.344 126.823 123.621 100.231 123.621ZM100.367 28.8518C74.5058 28.8518 53.9022 49.8946 53.4667 75.7516C53.0616 99.8018 78.6109 129.813 100.367 122.652C112.034 109.803 145.02 95.9634 147.267 75.7516C150.125 50.0493 126.228 28.8518 100.367 28.8518Z" fill="#3F3D56"/>
<path d="M93.8772 100.506C93.0558 100.506 92.2458 100.315 91.5112 99.9473C90.7766 99.5799 90.1376 99.0464 89.645 98.3892L76.6689 81.0875C76.2516 80.5317 75.948 79.8991 75.7753 79.2259C75.6026 78.5527 75.5643 77.8521 75.6624 77.1641C75.7605 76.4761 75.9933 75.8141 76.3473 75.2161C76.7014 74.618 77.1698 74.0956 77.7258 73.6786C78.2818 73.2616 78.9145 72.9583 79.5878 72.7859C80.261 72.6135 80.9617 72.5755 81.6497 72.6739C82.3376 72.7724 82.9995 73.0055 83.5974 73.3598C84.1952 73.7141 84.7174 74.1828 85.1342 74.739L93.6236 86.0573L115.427 53.3518C116.206 52.1851 117.416 51.3753 118.792 51.1005C120.168 50.8258 121.596 51.1086 122.763 51.8867C123.93 52.6648 124.741 53.8745 125.016 55.25C125.292 56.6254 125.01 58.054 124.232 59.2216L98.2799 98.1498C97.8104 98.8538 97.179 99.4351 96.4386 99.8447C95.6982 100.254 94.8703 100.481 94.0244 100.504C93.9754 100.505 93.9263 100.506 93.8772 100.506Z" fill="#F2F2F2"/>
<path d="M108.986 94.8259C108.164 94.826 107.354 94.6347 106.62 94.2673C105.885 93.8998 105.246 93.3664 104.753 92.7092L91.7773 75.4075C91.3601 74.8517 91.0564 74.2191 90.8837 73.5459C90.711 72.8727 90.6726 72.1721 90.7708 71.4841C90.8689 70.796 91.1017 70.1341 91.4557 69.536C91.8098 68.938 92.2782 68.4156 92.8342 67.9986C93.3902 67.5816 94.0229 67.2783 94.6962 67.1059C95.3694 66.9335 96.0701 66.8954 96.7581 66.9939C97.446 67.0924 98.1079 67.3254 98.7058 67.6798C99.3036 68.0341 99.8259 68.5027 100.243 69.0589L108.732 80.3773L130.536 47.6718C130.921 47.0937 131.417 46.5971 131.994 46.2105C132.571 45.8239 133.219 45.5548 133.901 45.4185C134.582 45.2822 135.283 45.2815 135.965 45.4163C136.647 45.5512 137.295 45.8189 137.873 46.2044C138.451 46.5898 138.948 47.0853 139.334 47.6626C139.721 48.2399 139.99 48.8877 140.126 49.569C140.263 50.2503 140.263 50.9518 140.129 51.6334C139.994 52.315 139.726 52.9634 139.341 53.5415L113.388 92.4698C112.919 93.1738 112.287 93.755 111.547 94.1647C110.807 94.5743 109.979 94.8005 109.133 94.8242C109.084 94.8251 109.035 94.8259 108.986 94.8259Z" fill="#00C8E1"/>
</svg>
