<svg width="185" height="179" viewBox="0 0 185 179" fill="none" xmlns="http://www.w3.org/2000/svg">
<path fill-rule="evenodd" clip-rule="evenodd" d="M139.101 58.464C139.773 57.8374 140.852 57.8466 141.511 58.4845C142.127 59.0798 142.16 60.0125 141.615 60.6437L141.49 60.7741L72.0803 125.536C71.4429 126.131 70.4411 126.151 69.7783 125.612L69.6418 125.488L42.4605 97.926C41.817 97.2734 41.8522 96.2488 42.5393 95.6375C43.1805 95.067 44.1629 95.0581 44.8143 95.59L44.9486 95.7123L70.9361 122.063L139.101 58.464Z" fill="#153C3F" stroke="#153C3F" stroke-width="6"/>
<path d="M181 89.5C181 136.597 141.503 175 92.5 175C43.4975 175 4 136.597 4 89.5C4 42.4029 43.4975 4 92.5 4C141.503 4 181 42.4029 181 89.5Z" stroke="#153C3F" stroke-width="8"/>
<path d="M172 89.5C172 132.211 136.499 167 92.5 167C48.5014 167 13 132.211 13 89.5C13 46.7888 48.5014 12 92.5 12C136.499 12 172 46.7888 172 89.5Z" stroke="#00C8E1" stroke-width="8"/>
</svg>
