<svg width="70" height="61" viewBox="0 0 70 61" fill="none" xmlns="http://www.w3.org/2000/svg">
<path d="M36.0434 13.7444C35.9046 14.213 36.1694 14.7067 36.6364 14.8469L36.7294 14.8749L36.7334 14.8702C37.1716 14.9498 37.6052 14.6853 37.7334 14.2494C38.9053 10.2845 42.5968 7.51571 46.7085 7.51571C47.1963 7.51571 47.5902 7.11758 47.5902 6.6289C47.5902 6.1402 47.1963 5.74209 46.7085 5.74209C41.6537 5.74209 37.4069 9.13086 36.0434 13.7444ZM36.0434 13.7444L36.1872 13.787M36.0434 13.7444C36.0434 13.7444 36.0433 13.7445 36.0433 13.7445L36.1872 13.787M36.1872 13.787C36.0717 14.177 36.2923 14.587 36.6795 14.7033L36.1872 13.787Z" fill="#00C8E1" stroke="#F9FFF9" stroke-width="0.3"/>
<path d="M56.9524 42.7326H52.5621C52.1581 42.7326 51.8303 42.4026 51.8303 41.9958C51.8303 41.589 52.158 41.259 52.5621 41.259H56.9524C63.0043 41.259 67.9283 36.3008 67.9283 30.2069C67.9283 24.1131 63.0043 19.1549 56.9524 19.1549H56.8468C56.6346 19.1549 56.4329 19.0623 56.2938 18.9007C56.1548 18.7391 56.0921 18.5249 56.1224 18.3134C56.1877 17.8545 56.2207 17.3934 56.2207 16.9445C56.2207 11.6632 51.953 7.36602 46.7081 7.36602C44.6676 7.36602 42.7217 8.00809 41.0805 9.22327C40.7199 9.49011 40.2077 9.37169 39.9991 8.97223C35.3511 0.0601131 23.2109 -1.13669 16.9169 6.61607C14.2654 9.8822 13.2236 14.1309 14.0584 18.2718C14.1504 18.7292 13.8029 19.1555 13.3413 19.1555H13.0481C6.99624 19.1555 2.07217 24.1137 2.07217 30.2075C2.07217 36.3013 6.99624 41.2595 13.0481 41.2595H17.4385C17.8425 41.2595 18.1702 41.5895 18.1702 41.9963C18.1702 42.4032 17.8425 42.7332 17.4385 42.7332H13.0481C6.18914 42.7332 0.608643 37.114 0.608643 30.2075C0.608643 23.4947 5.88019 17.9981 12.4737 17.6949C11.8544 13.3988 13.0387 9.06536 15.7837 5.6835C22.5224 -2.61762 35.4366 -1.68717 40.8958 7.56918C42.6373 6.46976 44.6302 5.893 46.7079 5.893C53.0624 5.893 58.0978 11.3391 57.6572 17.7018C64.19 18.0707 69.3915 23.5383 69.3915 30.2069C69.3915 37.114 63.811 42.7326 56.9521 42.7326L56.9524 42.7326Z" fill="#00C8E1"/>
<path d="M16.4586 41.5797C16.4586 51.8186 24.7313 60.15 34.9021 60.15C45.073 60.15 53.3456 51.8185 53.3456 41.5797C53.3456 31.3408 45.073 23.0094 34.9021 23.0094C24.7312 23.0094 16.4586 31.341 16.4586 41.5797ZM18.2224 41.5797C18.2224 32.3175 25.7061 24.7834 34.9021 24.7834C44.098 24.7834 51.5818 32.3174 51.5818 41.5797C51.5818 50.8419 44.098 58.376 34.9021 58.376C25.7062 58.376 18.2224 50.842 18.2224 41.5797Z" fill="#00C8E1" stroke="#F9FFF9" stroke-width="0.3"/>
<path d="M34.5514 48.9952C34.5514 49.3749 34.8575 49.6846 35.2371 49.6846C35.6167 49.6846 35.9228 49.3754 35.9228 48.9952V34.9701C35.9228 34.5904 35.6167 34.2807 35.2371 34.2807C34.8575 34.2807 34.5514 34.5904 34.5514 34.9701V48.9952Z" fill="#00C8E1" stroke="#00C8E1" stroke-width="0.3"/>
<path d="M35.2367 35.9474L39.0372 39.7741C39.1708 39.9087 39.3469 39.9764 39.5224 39.9764L35.2367 35.9474ZM35.2367 35.9474L31.4364 39.774C31.4364 39.774 31.4364 39.7741 31.4364 39.7741L31.4363 39.7741L35.2367 35.9474ZM35.722 34.4845C35.4541 34.2147 35.019 34.2146 34.7514 34.4846L40.0076 39.7741C40.0076 39.7741 40.0076 39.7741 40.0076 39.7741C40.275 39.5049 40.275 39.0691 40.0076 38.7998L35.722 34.4845Z" fill="#00C8E1" stroke="#00C8E1" stroke-width="0.3"/>
</svg>
