<svg width="75" height="78" viewBox="0 0 75 78" fill="none" xmlns="http://www.w3.org/2000/svg">
<g clip-path="url(#clip0_1_175)">
<path d="M37.7048 77.9845C36.4965 77.9804 35.2934 77.8248 34.1238 77.5212L33.8933 77.4575L33.6795 77.3503C25.9482 73.474 19.4258 68.354 14.2934 62.1324C10.0448 56.952 6.73235 51.0701 4.50509 44.7514C1.84164 37.1863 0.560262 29.2039 0.722121 21.1853C0.725387 21.017 0.728151 20.887 0.728151 20.7975C0.728151 16.8996 2.89179 13.4795 6.24026 12.0842C8.80301 11.0164 32.0716 1.4591 33.7528 0.768552C36.919 -0.817907 40.2967 0.506242 40.8373 0.7378C42.0497 1.23351 63.5601 10.0315 68.2085 12.245C72.9991 14.5262 74.2773 18.6244 74.2773 20.6862C74.2773 30.0209 72.6606 38.7449 69.4722 46.6159C66.8972 52.9869 63.2476 58.8686 58.6824 64.0047C49.8744 73.9168 41.064 77.4307 40.979 77.4617C39.9261 77.824 38.8182 78.0009 37.7048 77.9845ZM35.6329 72.8523C36.3968 73.0235 38.1553 73.2804 39.3016 72.8622C40.7577 72.3312 48.1318 68.5073 55.0227 60.7527C64.5435 50.0384 69.3744 36.5697 69.3814 20.7207C69.3644 20.3996 69.1364 18.1094 66.1036 16.6653C61.5453 14.4947 39.1871 5.35244 38.9618 5.2603L38.9 5.23411C38.4315 5.03777 36.9403 4.62419 35.9125 5.16283L35.7066 5.25878C35.4574 5.36114 10.7576 15.5059 8.12331 16.6035C6.28057 17.3713 5.62401 19.2734 5.62401 20.7975C5.62401 20.9089 5.62113 21.0709 5.61706 21.2803C5.40652 32.1248 7.91601 58.8098 35.6329 72.8523Z" fill="#3F3D56"/>
<path d="M34.7761 2.99442C34.7761 2.99442 9.85173 13.2312 7.18126 14.3439C4.51078 15.4566 3.17555 18.1271 3.17555 20.7975C3.17555 23.468 1.17271 58.314 34.7761 75.162C34.7761 75.162 37.8259 76.0059 40.1398 75.162C42.4537 74.3181 71.8288 60.0757 71.8288 20.6863C71.8288 20.6863 71.8288 16.6806 67.1555 14.4552C62.4822 12.2298 39.8875 2.99442 39.8875 2.99442C39.8875 2.99442 37.1127 1.77046 34.7761 2.99442Z" fill="#00C8E1"/>
<path opacity="0.1" d="M37.4468 11.0059V65.6155C37.4468 65.6155 12.2999 53.5108 12.5225 21.6877L37.4468 11.0059Z" fill="black"/>
<path d="M37.7747 50.2544L29.7642 39.9546L34.4226 36.3314L38.2156 41.2082L51.029 27.6819L55.3138 31.7415L37.7747 50.2544Z" fill="white"/>
</g>
<defs>
<clipPath id="clip0_1_175">
<rect width="73.5813" height="78" fill="white" transform="translate(0.709473)"/>
</clipPath>
</defs>
</svg>
