<svg width="19" height="19" viewBox="0 0 19 19" fill="none" xmlns="http://www.w3.org/2000/svg">
<path fill-rule="evenodd" clip-rule="evenodd" d="M2 7.176C2 4.322 4.322 2 7.176 2C10.03 2 12.352 4.322 12.352 7.176C12.352 10.03 10.03 12.352 7.176 12.352C4.322 12.352 2 10.03 2 7.176ZM18.592 17.224L12.88 11.512C13.799 10.306 14.352 8.806 14.352 7.176C14.352 3.219 11.133 0 7.176 0C3.219 0 0 3.219 0 7.176C0 11.133 3.219 14.352 7.176 14.352C8.783 14.352 10.262 13.815 11.459 12.92L17.178 18.638L18.592 17.224Z" fill="#fff"/>
</svg>
