<svg width="22" height="22" viewBox="0 0 22 22" fill="none" xmlns="http://www.w3.org/2000/svg">
<g clip-path="url(#clip0_1_36)">
<path d="M8.78909 14.1667V7.77081L14.4926 10.9688L8.78909 14.1667Z" fill="white"/>
<path d="M21.4883 5.83916C21.3635 5.38864 21.1191 4.97787 20.7795 4.64796C20.4399 4.31805 20.017 4.08058 19.5533 3.95932C17.8455 3.51028 10.9828 3.51028 10.9828 3.51028C10.9828 3.51028 4.12007 3.51028 2.41224 3.95932C1.94849 4.08058 1.52566 4.31805 1.18607 4.64796C0.846475 4.97787 0.602033 5.38864 0.477207 5.83916C0.158316 7.53122 0.00356619 9.24862 0.0149938 10.9688C0.00356619 12.6889 0.158316 14.4063 0.477207 16.0984C0.602033 16.5489 0.846475 16.9597 1.18607 17.2896C1.52566 17.6195 1.94849 17.857 2.41224 17.9782C4.12007 18.4273 10.9828 18.4273 10.9828 18.4273C10.9828 18.4273 17.8455 18.4273 19.5533 17.9782C20.017 17.857 20.4399 17.6195 20.7795 17.2896C21.1191 16.9597 21.3635 16.5489 21.4883 16.0984C21.8072 14.4063 21.962 12.6889 21.9505 10.9688C21.962 9.24862 21.8072 7.53122 21.4883 5.83916ZM8.78921 14.1653V7.77228L14.4846 10.9688L8.78921 14.1653Z" fill="#153C3F"/>
</g>
<defs>
<clipPath id="clip0_1_36">
<rect width="21.9367" height="21.9367" fill="white" transform="translate(0.0144043)"/>
</clipPath>
</defs>
</svg>
